<?xml version="1.0" encoding="UTF-8"?>
<svg xmlns="http://www.w3.org/2000/svg" width="88" height="88" viewBox="0 0 88 88" fill="none">
  <g clip-path="url(#clip0_540_5916)">
    <path d="M33.3748 13.8193H30.637L29.8548 20.4682C29.6592 22.2933 28.4207 23.3363 26.8563 23.3363C25.2267 23.3363 24.4444 22.2933 24.7052 20.4682L25.5526 13.8193H22.8148L21.9022 21.3156C21.5763 24.0533 22.88 25.8133 25.5526 25.8133C27.3778 25.8133 28.5511 24.8356 29.4637 23.7274L29.2682 25.5526H32.0059L33.3748 13.8193ZM6.58367 25.5526H13.8193C17.2741 25.5526 19.7511 24.0533 20.077 21.3156V21.2504C20.3378 19.1645 19.2296 18.1215 17.4696 17.4696C18.7081 16.883 19.8815 15.84 20.1422 14.0148V13.9496C20.2726 12.9067 20.0118 12.0593 19.4252 11.3422C18.6429 10.4296 17.2741 9.97333 15.5141 9.97333H8.47406L6.58367 25.5526ZM34.0918 29.1378H36.7644L37.4163 23.7274C38.1333 24.8356 39.1763 25.8133 41.1318 25.8133C43.9348 25.8133 46.8681 23.597 47.3244 19.7511V19.6859C47.7807 15.7748 45.3689 13.6237 42.6311 13.6237C40.7407 13.6237 39.3718 14.6015 38.3289 15.84L38.5896 13.8844H35.917L34.0918 29.1378ZM53.4518 25.8133C55.3422 25.8133 56.7111 24.8356 57.754 23.5971L57.4933 25.5526H60.1659L61.6 13.8193H58.9274L58.7318 15.6445C58.0148 14.5363 56.9067 13.5585 55.0163 13.5585C52.2133 13.5585 49.28 15.7748 48.8237 19.6208V19.6859C48.3022 23.5971 50.7141 25.8133 53.4518 25.8133ZM33.1793 36.243L32.8533 38.6548H54.56C59.0578 38.6548 61.6652 36.243 62.9689 34.483L65.6415 39.3719C65.9022 39.8282 66.3585 40.0889 66.88 40.0237C67.4015 39.9585 67.7926 39.5674 67.923 39.1111L73.3985 15.2533L75.9407 44.1956C76.0059 44.9126 76.5926 45.4993 77.3748 45.4993C77.9615 45.4993 78.4177 45.1733 78.6133 44.717L82.72 36.243C83.5022 37.4163 84.6755 38.72 86.5007 38.72H87.9348V87.9348H0.58667V0.58667H87.9348V36.3082H86.5007C85.3925 36.3082 84.5452 34.6785 84.0889 33.8311C83.8281 33.3748 83.6977 33.1141 83.5022 32.8534C83.2415 32.5926 82.8504 32.4622 82.4592 32.5274C82.0681 32.5926 81.7422 32.8534 81.6118 33.1793L78.0267 40.8059L75.2889 10.4296C75.2237 9.64741 74.637 9.06074 73.8548 9.06074C73.0726 8.99556 72.4207 9.51705 72.2252 10.2341L66.3585 35.6563L64.2726 31.7452C64.1422 31.4193 63.8163 31.2237 63.4904 31.1585C63.1644 31.0933 62.8385 31.1585 62.5126 31.3541C62.2519 31.5496 62.1215 31.7452 61.8607 32.1363C61.1437 33.3096 59.1881 36.4385 54.6252 36.4385H33.1793V36.243ZM54.4296 23.4667C56.2548 23.4667 58.0148 21.9674 58.2756 19.6859V19.6208C58.5363 17.3393 57.1674 15.84 55.3422 15.84C53.517 15.84 51.757 17.2741 51.4963 19.6208V19.6859C51.2355 21.9674 52.6044 23.4667 54.4296 23.4667ZM40.8059 23.4667C42.6311 23.4667 44.3259 22.0326 44.6518 19.6859V19.6208C44.9126 17.3393 43.6089 15.84 41.7837 15.84C39.9585 15.84 38.1985 17.3393 37.8726 19.6208V19.6859C37.6118 21.9674 38.9807 23.4667 40.8059 23.4667ZM17.3392 20.9896C17.5348 19.6208 16.557 18.8385 14.4059 18.8385H10.0385L9.51701 23.0756H14.08C15.9703 23.1407 17.1437 22.4237 17.3392 20.9896ZM14.08 16.557H10.3644L10.8859 12.4504H14.797C16.557 12.4504 17.4696 13.2326 17.2741 14.4059V14.4711C17.0785 15.84 15.84 16.557 14.08 16.557Z" fill="#007BC2"></path>
  </g>
  <defs>
    <clipPath id="clip0_540_5916">
      <rect width="88" height="88" fill="white"></rect>
    </clipPath>
  </defs>
</svg>
